<svg width="24" height="22" viewBox="0 0 24 22" fill="none" xmlns="http://www.w3.org/2000/svg">
<path d="M14.5781 22H5.625C3.55719 22 1.875 20.458 1.875 18.5625V6.91797C1.875 5.02248 3.55719 3.48047 5.625 3.48047H14.5781C16.6459 3.48047 18.3281 5.02248 18.3281 6.91797V18.5625C18.3281 20.458 16.6459 22 14.5781 22ZM5.625 5.19922C4.59119 5.19922 3.75 5.97031 3.75 6.91797V18.5625C3.75 19.5102 4.59119 20.2812 5.625 20.2812H14.5781C15.6119 20.2812 16.4531 19.5102 16.4531 18.5625V6.91797C16.4531 5.97031 15.6119 5.19922 14.5781 5.19922H5.625ZM22.0781 16.4141V3.4375C22.0781 1.54201 20.3959 0 18.3281 0H7.92188C7.40405 0 6.98438 0.384705 6.98438 0.859375C6.98438 1.33405 7.40405 1.71875 7.92188 1.71875H18.3281C19.3619 1.71875 20.2031 2.48984 20.2031 3.4375V16.4141C20.2031 16.8887 20.6228 17.2734 21.1406 17.2734C21.6584 17.2734 22.0781 16.8887 22.0781 16.4141Z" fill="#1E1E1E"/>
</svg>
