<svg width="22" height="18" viewBox="0 0 22 18" fill="none" xmlns="http://www.w3.org/2000/svg">
<path d="M6.13233 10.4511L2.09327 6.24789L6.13233 2.04468C6.45872 1.70465 6.42065 1.18828 6.04661 0.891286C5.67256 0.594568 5.10486 0.62945 4.77787 0.969216L0.222105 5.71027C-0.0740352 6.01816 -0.0740352 6.47785 0.222105 6.78574L4.77791 11.5268C4.95593 11.7116 5.20502 11.8064 5.45557 11.8064C5.66539 11.8064 5.87606 11.7399 6.04661 11.6045C6.42069 11.3075 6.45902 10.7911 6.13233 10.4511Z" fill="white"/>
<path d="M15.4657 5.43042H0.899164C0.402531 5.43042 0 5.79632 0 6.24784C0 6.69933 0.402531 7.06526 0.899164 7.06526H15.4657C18.0772 7.06526 20.2017 8.99655 20.2017 11.3704C20.2017 13.7442 18.0772 15.6755 15.4657 15.6755H2.09808C1.60145 15.6755 1.19891 16.0414 1.19891 16.4929C1.19891 16.9444 1.60145 17.3103 2.09808 17.3103H15.4657C19.0684 17.3103 22 14.6455 22 11.3704C22 8.09522 19.0687 5.43042 15.4657 5.43042Z" fill="white"/>
</svg>
