<svg class="goodFill" width="244" height="495" viewBox="0 0 244 495" fill="none" xmlns="http://www.w3.org/2000/svg">
<path fill-rule="evenodd" clip-rule="evenodd" d="M205 495L215.5 306L244 310.5L209.5 112.5L36.5 32.5L141.5 232.5L72.5 221L116 311L104 312L205 495ZM198.5 301.5V303L202 302.426L198.5 301.5Z" fill="#262642"/>
<path fill-rule="evenodd" clip-rule="evenodd" d="M124.5 323.499L202.23 315.864L202.118 318.602L195.915 449.175L124.501 323.499L124.5 323.499Z" fill="#BDD8FF"/>
<path d="M195.949 448.163L145.244 327.8L202.04 320.269L195.949 448.163Z" fill="#90AFD6"/>
<circle cx="189" cy="330.5" r="4.5" fill="#262642"/>
<circle cx="189" cy="330.5" r="4" stroke="black" stroke-opacity="0.25"/>
<circle cx="168" cy="330.5" r="4.5" fill="#262642"/>
<circle cx="168" cy="330.5" r="4" stroke="black" stroke-opacity="0.25"/>
<circle cx="149" cy="335.5" r="4.5" fill="#262642"/>
<circle cx="149" cy="335.5" r="4" stroke="black" stroke-opacity="0.25"/>
<path d="M129 309.5L94.5 238.5L163.5 250.5L63 58L198 121L227.5 294.5L190 287.5L190.5 303.5L129 309.5Z" fill="#57EFFF"/>
<path d="M0 0L155.5 75L21 20L134.5 229L58 205L99.5 303L38.5 188.5L111 209.5L0 0Z" fill="#262642"/>
<path d="M129.5 305L111.5 267.5L130.5 303L156.5 300L152 266.5L196.5 265L152 123L81 79.5L113.5 155L65.5 63L198.5 124.5L227 292L186.5 282V300.5L129.5 305Z" fill="#9AF7FE"/>
</svg>
